<svg id="Capa_1" enable-background="new 0 0 512 512" height="512" viewBox="0 0 512 512" width="512" xmlns="http://www.w3.org/2000/svg"><g><g><ellipse cx="127.289" cy="445.33" fill="#f6e266" rx="61.596" ry="26.73" transform="matrix(.309 -.951 .951 .309 -335.576 428.675)"/><path d="m121.744 437.067c-9.059 27.86-8.204 53.919 1.185 63.536-5.162 3.475-10.221 4.763-14.688 3.305-14.038-4.569-16.887-34.492-6.37-66.841 10.517-32.35 30.424-54.877 44.462-50.319 1.948.638 3.692 1.766 5.196 3.316-11.063 7.452-22.617 24.943-29.785 47.003z" fill="#ffd064"/><ellipse cx="384.709" cy="445.33" fill="#f6e266" rx="26.73" ry="61.596" transform="matrix(.951 -.309 .309 .951 -118.851 140.786)"/><path d="m410.581 498.643c-1.857 2.575-4.136 4.387-6.825 5.264-14.05 4.569-33.956-17.958-44.473-50.307-10.517-32.361-7.669-62.283 6.37-66.852 3.681-1.197 7.771-.524 11.987 1.698-7.828 10.871-8.067 35.426.433 61.577 7.771 23.871 20.646 42.388 32.508 48.62z" fill="#ffd064"/><circle cx="475.537" cy="28.231" fill="#e7a561" r="20.727"/><circle cx="36.461" cy="28.231" fill="#e7a561" r="20.727"/><circle cx="414.197" cy="89.57" fill="#f6e266" r="82.066"/><path d="m484.992 48.046c-12.181-7.167-26.367-11.269-41.522-11.269-45.328 0-82.076 36.737-82.076 82.064 0 15.155 4.102 29.341 11.269 41.522-24.248-14.255-40.531-40.622-40.531-70.784 0-45.328 36.748-82.076 82.064-82.076 30.174.001 56.542 16.284 70.796 40.543z" fill="#ffd064"/><circle cx="97.801" cy="89.57" fill="#f6e266" r="82.066"/><path d="m116.018 169.612c-5.868 1.322-11.964 2.028-18.22 2.028-45.328 0-82.064-36.748-82.064-82.064 0-45.328 36.737-82.076 82.065-82.076 6.255 0 12.352.707 18.22 2.028-36.554 8.284-63.855 40.975-63.855 80.047-.001 39.062 27.3 71.753 63.854 80.037z" fill="#ffd064"/><g><circle cx="255.999" cy="247.769" fill="#dd636e" r="223.726"/><path d="m270.362 471.046c-4.749.29-9.541.45-14.362.45-123.568 0-223.727-100.173-223.727-223.727s100.158-223.727 223.727-223.727c4.821 0 9.614.16 14.362.45-116.83 7.464-209.278 104.573-209.278 223.277s92.448 215.813 209.278 223.277z" fill="#cb5769"/><circle cx="255.999" cy="247.769" fill="#d3effb" r="170.992"/><path d="m285.876 416.283c-9.468 1.641-19.213 2.483-29.146 2.483-94.437 0-170.998-76.56-170.998-170.998s76.561-170.997 170.998-170.997c9.933 0 19.677.842 29.146 2.483-80.539 13.825-141.837 84.01-141.837 168.514s61.298 154.69 141.837 168.515z" fill="#9dc6fb"/><path d="m255.999 269.552h-79.442c-12.03 0-21.783-9.753-21.783-21.783s9.753-21.783 21.783-21.783h79.442c12.03 0 21.783 9.753 21.783 21.783s-9.753 21.783-21.783 21.783z" fill="#365e7d"/><path d="m255.999 269.552c-12.03 0-21.783-9.753-21.783-21.783v-55.621c0-12.03 9.753-21.783 21.783-21.783s21.783 9.753 21.783 21.783v55.621c0 12.03-9.753 21.783-21.783 21.783z" fill="#2b4d66"/></g></g><g><path d="m503.759 89.575c0-14.449-3.443-28.107-9.544-40.204 5.956-5.288 9.544-12.976 9.544-21.144 0-15.564-12.662-28.227-28.226-28.227-8.168 0-15.852 3.589-21.135 9.547-12.096-6.103-25.753-9.547-40.201-9.547-27.411 0-53.176 12.549-70.114 33.847-27.571-11.351-57.369-17.305-88.083-17.305s-60.511 5.953-88.081 17.304c-16.957-21.298-42.724-33.846-70.119-33.846-14.446 0-28.102 3.444-40.198 9.547-5.282-5.958-12.966-9.547-21.134-9.547-15.564 0-28.227 12.663-28.227 28.227 0 8.168 3.589 15.857 9.545 21.145-6.101 12.098-9.544 25.757-9.544 40.207 0 6.114.624 12.247 1.853 18.23.729 3.548 3.853 5.991 7.339 5.991.501 0 1.009-.05 1.519-.155 4.057-.834 6.67-4.799 5.836-8.857-1.026-4.99-1.547-10.107-1.547-15.209-.001-41.123 33.446-74.579 74.558-74.579 21.526 0 41.852 9.308 55.94 25.268-22.39 11.059-43.066 25.822-61.241 43.998-18.173 18.173-32.935 38.845-43.994 61.232-5.142-4.531-9.638-9.724-13.391-15.544-2.243-3.482-6.887-4.482-10.367-2.239-3.481 2.245-4.483 6.887-2.238 10.368 5.337 8.278 11.917 15.506 19.575 21.591-11.354 27.573-17.308 57.375-17.308 88.093 0 61.762 24.052 119.827 67.724 163.5 2.711 2.711 5.478 5.346 8.298 7.905-2.272 4.963-4.304 10.177-6.057 15.573-5.397 16.601-7.655 33.246-6.357 46.868 1.504 15.782 7.732 26.232 17.538 29.424 1.984.646 4.025.965 6.104.965 8.2 0 17.012-4.962 25.388-14.439 8.706-9.85 16.395-23.892 21.776-39.695 29.965 13.827 62.824 21.125 96.81 21.125s66.846-7.298 96.812-21.125c5.377 15.805 13.063 29.845 21.773 39.696 8.378 9.477 17.19 14.439 25.391 14.438 2.08 0 4.121-.319 6.105-.965 9.806-3.192 16.034-13.641 17.538-29.424 1.298-13.622-.96-30.267-6.356-46.865-1.754-5.399-3.787-10.614-6.059-15.577 2.819-2.559 5.586-5.193 8.296-7.903 43.672-43.672 67.724-101.738 67.724-163.5 0-30.715-5.953-60.514-17.305-88.084 21.294-16.934 33.84-42.698 33.84-70.109zm-477.832-53.381c-1.704-2.26-2.687-5.047-2.687-7.968.001-7.292 5.934-13.226 13.228-13.226 2.919 0 5.705.983 7.961 2.688-7.029 5.236-13.268 11.475-18.502 18.506zm449.606-21.194c7.293 0 13.226 5.934 13.226 13.226 0 2.92-.982 5.707-2.686 7.967-5.234-7.031-11.472-13.27-18.502-18.504 2.257-1.705 5.043-2.689 7.962-2.689zm-329.95 436.275c-10.221 31.403-27.561 47.923-35.02 45.497-7.454-2.426-11.767-25.99-1.557-57.393 1.123-3.461 2.377-6.827 3.737-10.089 10.396 8.238 21.401 15.511 32.905 21.775-.022.07-.042.141-.065.21zm257.413-11.893c10.21 31.401 5.896 54.964-1.558 57.39-3.55 1.156-9.682-2.432-15.617-9.145-7.736-8.751-14.627-21.66-19.409-36.369-.02-.062-.04-.13-.06-.193 11.504-6.265 22.508-13.538 32.904-21.776 1.361 3.262 2.615 6.629 3.74 10.093zm5.896-38.722c-40.838 40.839-95.138 63.33-152.893 63.33s-112.055-22.49-152.893-63.33c-40.84-40.839-63.331-95.138-63.331-152.894s22.491-112.055 63.331-152.894c40.838-40.839 95.138-63.33 152.893-63.33s112.055 22.491 152.893 63.33c40.84 40.839 63.331 95.138 63.331 152.894.001 57.756-22.49 112.055-63.331 152.894zm10.607-316.394c-18.176-18.176-38.851-32.939-61.242-43.999 14.074-15.959 34.399-25.267 55.94-25.267 41.114 0 74.563 33.454 74.563 74.575 0 21.54-9.305 41.863-25.261 55.933-11.06-22.391-25.824-43.066-44-61.242z"/><path d="m255.999 69.279c-98.419 0-178.489 80.07-178.489 178.489s80.07 178.488 178.489 178.488c41.925 0 82.671-14.829 114.732-41.756 3.172-2.664 3.584-7.394.92-10.566-2.663-3.172-7.393-3.584-10.566-.92-5.39 4.526-11.049 8.676-16.933 12.44l-6.986-12.1c-2.071-3.587-6.66-4.815-10.245-2.745-3.587 2.071-4.816 6.658-2.745 10.245l6.984 12.097c-20.877 10.797-43.975 17.039-67.661 18.13v-28.49c0-4.142-3.357-7.5-7.5-7.5s-7.5 3.358-7.5 7.5v28.488c-24.297-1.103-47.226-7.532-67.649-18.148l6.972-12.076c2.071-3.587.842-8.174-2.745-10.245-3.587-2.072-8.175-.843-10.245 2.745l-6.963 12.06c-19.845-12.75-36.766-29.672-49.517-49.517l12.061-6.963c3.587-2.071 4.816-6.658 2.745-10.245-2.07-3.588-6.66-4.817-10.245-2.745l-12.076 6.972c-10.616-20.423-17.045-43.352-18.148-67.649h28.487c4.143 0 7.5-3.358 7.5-7.5s-3.357-7.5-7.5-7.5h-28.487c1.103-24.297 7.533-47.226 18.148-67.649l12.075 6.971c1.182.682 2.471 1.006 3.743 1.006 2.592 0 5.113-1.346 6.502-3.751 2.071-3.587.842-8.174-2.745-10.245l-12.06-6.963c12.75-19.845 29.672-36.766 49.516-49.516l6.963 12.059c1.389 2.406 3.91 3.751 6.502 3.751 1.272 0 2.562-.324 3.743-1.006 3.587-2.071 4.816-6.658 2.745-10.245l-6.971-12.075c20.423-10.616 43.352-17.045 67.649-18.148v28.486c0 4.142 3.357 7.5 7.5 7.5s7.5-3.358 7.5-7.5v-28.485c24.296 1.103 47.226 7.532 67.649 18.148l-6.971 12.075c-2.071 3.587-.842 8.174 2.745 10.245 1.182.682 2.471 1.006 3.743 1.006 2.592 0 5.113-1.346 6.502-3.751l6.963-12.059c19.845 12.75 36.766 29.671 49.517 49.516l-12.06 6.963c-3.587 2.071-4.816 6.658-2.745 10.245 1.389 2.406 3.91 3.751 6.502 3.751 1.272 0 2.562-.324 3.743-1.006l12.075-6.971c10.616 20.423 17.045 43.352 18.148 67.649h-28.487c-4.143 0-7.5 3.358-7.5 7.5s3.357 7.5 7.5 7.5h28.49c-1.091 23.686-7.333 46.784-18.13 67.661l-12.096-6.984c-3.59-2.072-8.175-.842-10.245 2.745-2.071 3.587-.842 8.174 2.745 10.245l12.1 6.986c-3.765 5.884-7.914 11.544-12.441 16.934-2.664 3.172-2.252 7.903.92 10.566 3.172 2.665 7.903 2.252 10.566-.92 26.927-32.062 41.756-72.808 41.756-114.732 0-98.421-80.07-178.491-178.489-178.491z"/><path d="m226.716 192.146v26.338h-50.166c-16.146 0-29.283 13.136-29.283 29.283 0 16.146 13.137 29.282 29.283 29.282h79.45.001c16.145-.001 29.281-13.137 29.281-29.282v-55.621c0-16.147-13.137-29.283-29.283-29.283s-29.283 13.136-29.283 29.283zm-64.448 55.621c0-7.876 6.407-14.283 14.283-14.283h50.166v14.283c0 5.184 1.36 10.054 3.733 14.283h-53.899c-7.876-.001-14.283-6.408-14.283-14.283zm108.014-55.621v55.621c0 7.875-6.407 14.283-14.283 14.283s-14.283-6.407-14.283-14.283v-55.621c0-7.876 6.407-14.283 14.283-14.283s14.283 6.407 14.283 14.283z"/></g></g></svg>