<svg width="16" height="23" viewBox="0 0 16 23" fill="none" xmlns="http://www.w3.org/2000/svg">
<path d="M14.6627 0.36763L15.5562 1.12103C15.8353 1.35814 15.989 1.67359 15.989 2.01074C15.989 2.3477 15.8353 2.66353 15.5562 2.90064L5.43383 11.4949L15.5675 20.099C15.8465 20.3357 16 20.6516 16 20.9885C16 21.3255 15.8465 21.6415 15.5675 21.8784L14.6795 22.632C14.102 23.1227 13.1614 23.1227 12.584 22.632L0.475266 12.3878C0.19645 12.151 -6.77119e-10 11.8356 -6.97735e-10 11.4956L-6.97973e-10 11.4917C-7.18423e-10 11.1545 0.196671 10.8391 0.475266 10.6023L12.5511 0.36763C12.83 0.130522 13.2127 0.000373841 13.6096 1.44979e-10C14.0067 1.20895e-10 14.3841 0.130522 14.6627 0.36763Z" fill="white"/>
</svg>
