<svg id="Capa_1" enable-background="new 0 0 512 512" height="512" viewBox="0 0 512 512" width="512" xmlns="http://www.w3.org/2000/svg"><g><g><path d="m274.605 512h-37.211c-1.456 0-2.637-1.181-2.637-2.637v-147.116h42.485v147.116c0 1.456-1.181 2.637-2.637 2.637z" fill="#f9f3f1"/><path d="m274.605 512h-18.606v-149.753h21.242v147.116c.001 1.456-1.18 2.637-2.636 2.637z" fill="#efe2dd"/></g><path d="m421.705 100.752c-1.745-8.378-4.332-16.576-7.965-24.324-6.628-14.136-15.939-26.899-27.684-37.363-25.47-22.694-59.556-33.367-92.957-36.917-39.187-4.164-82.82-3.003-120.065 10.011-26.406 9.226-49.211 25.254-64.776 47.291-9.161 12.97-15.263 27.84-18.395 43.407-7.334 36.448-23.525 149.318 35.364 232.611l18.339 24.459c9.067 12.093 23.299 19.211 38.414 19.211h74.02 74.02c15.115 0 29.347-7.117 38.413-19.21l18.339-24.46c60.073-84.968 42.017-200.714 34.933-234.716z" fill="#c5d3dd"/><path d="m386.769 335.467-18.338 24.464c-9.066 12.088-23.292 19.211-38.412 19.211h-20.075c15.11 0 29.346-7.123 38.413-19.211l18.338-24.464c60.07-84.966 42.021-200.717 34.938-234.71-1.747-8.388-4.338-16.58-7.966-24.33-6.63-14.134-15.943-26.9-27.681-37.364-25.471-22.696-59.556-33.365-92.963-36.912-9.508-1.007-19.283-1.706-29.162-1.994 16.662-.514 33.314.298 49.236 1.994 33.407 3.546 67.492 14.216 92.963 36.912 11.738 10.464 21.051 23.231 27.681 37.364 3.629 7.75 6.219 15.943 7.966 24.33 7.082 33.992 25.142 149.744-34.938 234.71z" fill="#b6c4cf"/><path d="m385.572 125.407c-5.194-36.001-29.238-66.818-63.273-79.65-.908-.343-1.823-.675-2.743-.996-19.399-6.778-41.016-9.429-62.343-9.484v-.003c-.404-.003-.81.002-1.214.002-.404.001-.81-.004-1.214-.002v.003c-21.327.054-42.944 2.706-62.343 9.484-.92.321-1.834.653-2.743.996-34.035 12.832-58.078 43.649-63.273 79.65-3.572 24.757-8.105 68.932-1.753 104.256 3.27 18.182 19.031 31.447 37.505 31.447h43.76c10.158 0 18.268 8.312 18.339 18.469.07 10.068 8.254 18.207 18.338 18.207h26.769c10.157 0 18.268-8.311 18.338-18.468.07-10.068 8.253-18.208 18.338-18.208h43.76c18.474 0 34.235-13.265 37.505-31.447 6.352-35.323 1.819-79.498-1.753-104.256z" fill="#f9f3f1"/><g fill="#cdbfba"><path d="m202.203 204.494c-14.687.297-27.132-11.898-27.132-26.576 0-4.249-3.444-7.693-7.693-7.693s-7.693 3.444-7.693 7.693c0 20.453 15.367 38.402 35.628 41.487 2.098.319 4.22.479 6.342.479.285 0 .572-.003.859-.009 21.883-.441 39.912-17.895 41.046-39.735.604-11.631-3.471-22.68-11.475-31.11-8.007-8.433-18.815-13.078-30.433-13.078-5.486 0-9.81.427-13.613 1.224l5.149-31.079h35.579c4.249 0 7.693-3.444 7.693-7.693s-3.444-7.693-7.693-7.693h-42.102c-3.763 0-6.974 2.723-7.589 6.436l-8.34 50.342c-.475 2.864.712 5.746 3.055 7.461 4.377 3.203 8.583.135 12.847-1.417 4.82-1.754 9.916-2.196 15.014-2.196 7.357 0 14.202 2.943 19.275 8.286 5.069 5.34 7.651 12.343 7.268 19.719-.718 13.825-12.135 24.872-25.992 25.152z"/><path d="m324.693 107.495c3.395-2.538 4.097-7.348 1.565-10.752-2.535-3.409-7.355-4.116-10.763-1.581-1.504 1.118-36.715 27.856-42.819 78.319-2.435 20.13 9.1 39.645 29.216 45.041 3.382.907 6.881 1.362 10.382 1.362 22.11 0 40.098-17.987 40.098-40.097s-17.988-40.098-40.098-40.098c-5.153 0-10.077.988-14.606 2.766 11.019-22.67 26.8-34.791 27.025-34.96zm-12.42 47.581c13.626 0 24.712 11.086 24.712 24.712s-11.086 24.711-24.712 24.711c-7.295 0-14.328-3.317-18.994-8.92-6.321-7.59-7.55-17.599-3.289-26.464 4.077-8.482 12.867-14.039 22.283-14.039z"/><circle cx="257.414" cy="205.512" r="9.475"/></g><path d="m284.822 261.109h21.236c-10.083 0-18.266 8.141-18.338 18.214-.072 10.156-8.182 18.461-18.337 18.461h-21.237c10.156 0 18.266-8.305 18.338-18.461.062-10.073 8.254-18.214 18.338-18.214z" fill="#efe2dd"/><path d="m387.324 229.665c-3.269 18.184-19.026 31.443-37.508 31.443h-21.237c18.472 0 34.229-13.26 37.508-31.443 6.342-35.329 1.819-79.497-1.758-104.26-5.191-35.997-29.234-66.813-63.277-79.652-.905-.339-1.819-.668-2.734-.997-16.559-5.777-34.722-8.562-52.937-9.272 3.135-.134 6.27-.195 9.405-.206v-.01c.401 0 .812.01 1.213.01s.812-.01 1.213-.01v.01c21.329.051 42.946 2.703 62.342 9.477.925.329 1.84.658 2.744.997 34.034 12.838 58.076 43.655 63.277 79.652 3.568 24.764 8.101 68.932 1.749 104.261z" fill="#efe2dd"/><circle cx="328.577" cy="321.596" fill="#8d9ca8" r="23.809"/><path d="m352.385 321.6c0 13.147-10.659 23.806-23.806 23.806-8.768 0-16.426-4.739-20.558-11.8 1.614.35 3.3.535 5.027.535 13.147 0 23.806-10.659 23.806-23.806 0-4.389-1.182-8.49-3.258-12.016 10.741 2.302 18.789 11.851 18.789 23.281z" fill="#7a8c98"/><circle cx="183.422" cy="321.596" fill="#8d9ca8" r="23.809"/><path d="m207.226 321.6c0 13.147-10.659 23.806-23.806 23.806-8.768 0-16.426-4.739-20.558-11.8 1.624.35 3.3.535 5.026.535 13.147 0 23.806-10.659 23.806-23.806 0-4.389-1.182-8.49-3.258-12.016 10.741 2.302 18.79 11.851 18.79 23.281z" fill="#7a8c98"/></g></svg>