<svg width="24" height="24" viewBox="0 0 24 24" fill="none" xmlns="http://www.w3.org/2000/svg">
<path d="M12.1808 11.5607C10.2771 11.5607 8.62886 10.9911 7.28175 9.8672C5.93506 8.74349 5.25208 7.36855 5.25208 5.78011C5.25208 4.19222 5.93485 2.81711 7.28196 1.69302C8.62907 0.569487 10.2773 -0.000152588 12.1808 -0.000152588C14.0848 -0.000152588 15.7327 0.569487 17.0796 1.69321C18.4265 2.81692 19.1094 4.19204 19.1094 5.78011C19.1094 7.36855 18.4265 8.74367 17.0796 9.86738C15.7322 10.9909 14.084 11.5607 12.1808 11.5607ZM15.8875 2.68765C14.8539 1.82541 13.6416 1.40628 12.1808 1.40628C10.7201 1.40628 9.50763 1.82541 8.47391 2.68765C7.44043 3.55008 6.93783 4.56173 6.93783 5.78011C6.93783 6.99886 7.44043 8.01033 8.47391 8.87276C9.50763 9.73518 10.7201 10.1543 12.1808 10.1543C13.6412 10.1543 14.8535 9.735 15.8875 8.87276C16.9211 8.01052 17.4237 6.99886 17.4237 5.78011C17.4237 4.56173 16.9211 3.55008 15.8875 2.68765Z" fill="white"/>
<path d="M0.0581682 18.4549C0.097015 17.9873 0.175584 17.4771 0.291249 16.9385C0.408005 16.3957 0.558334 15.8827 0.738305 15.4137C0.924412 14.9291 1.17703 14.4504 1.48977 13.9917C1.81393 13.5157 2.19493 13.1011 2.62246 12.76C3.06953 12.4031 3.61689 12.1162 4.24985 11.9069C4.8806 11.6987 5.57962 11.5932 6.32737 11.5932C6.62101 11.5932 6.90501 11.6938 7.45347 11.9917C7.79102 12.1753 8.18584 12.3877 8.62654 12.6227C9.00337 12.823 9.51386 13.0107 10.1444 13.1806C10.7596 13.3467 11.3842 13.4309 12.0009 13.4309C12.6172 13.4309 13.2418 13.3467 13.8574 13.1806C14.4873 13.0108 14.998 12.8232 15.3742 12.6228C15.8108 12.3901 16.2057 12.1777 16.5484 11.9915C17.0964 11.6936 17.3803 11.5931 17.674 11.5931C18.4219 11.5931 19.1207 11.6987 19.7513 11.9071C20.3838 12.116 20.9314 12.4029 21.3789 12.7602C21.8064 13.1015 22.1875 13.5158 22.5113 13.9917C22.8237 14.4504 23.0765 14.9289 23.2626 15.4139C23.4424 15.8829 23.5927 16.3957 23.7095 16.9385C23.8254 17.4764 23.9038 17.9867 23.9426 18.4555C23.9807 18.9138 24 19.3908 24 19.8727C24 21.1255 23.5227 22.1397 22.5814 22.8877C21.6517 23.6258 20.4218 24.0001 18.9257 24.0001H5.0744C3.5787 24.0001 2.34879 23.6258 1.41889 22.8877C0.477357 22.1403 0 21.1257 0 19.8725C0.000227735 19.3889 0.0197529 18.912 0.0581682 18.4549ZM2.58121 21.8687C3.19551 22.3565 4.01106 22.5937 5.07462 22.5937H18.9257C19.9895 22.5937 20.805 22.3565 21.419 21.8689C22.0216 21.3905 22.3143 20.7373 22.3143 19.8727C22.3143 19.423 22.2965 18.979 22.2609 18.5527C22.2263 18.1345 22.1553 17.6751 22.0502 17.1869C21.9464 16.7048 21.8143 16.2524 21.6572 15.8428C21.5064 15.45 21.3007 15.0611 21.0458 14.6864C20.8024 14.3294 20.5224 14.0231 20.2132 13.7762C19.9243 13.5453 19.5599 13.3564 19.1307 13.2146C18.7337 13.0835 18.2874 13.0118 17.8031 13.001C17.744 13.0271 17.6389 13.0771 17.4686 13.1698C17.122 13.3582 16.7227 13.5732 16.281 13.8085C15.7833 14.0732 15.1419 14.3124 14.3758 14.5187C13.5925 14.73 12.7936 14.8373 12.0006 14.8373C11.2078 14.8373 10.4087 14.73 9.62584 14.5189C8.85897 14.3122 8.21789 14.0732 7.71946 13.8081C7.26758 13.5671 6.87934 13.3584 6.53278 13.1698C6.36247 13.0773 6.25734 13.0271 6.19831 13.001C5.71372 13.0118 5.26754 13.0835 4.87029 13.2146C4.44123 13.3564 4.0769 13.5455 3.78786 13.7762C3.47884 14.0229 3.1988 14.3292 2.9554 14.6866C2.70016 15.0611 2.4943 15.4502 2.34374 15.8426C2.18638 16.2527 2.05404 16.705 1.95044 17.1867C1.84554 17.6758 1.77443 18.1354 1.73975 18.5529V18.5533C1.70399 18.9779 1.68598 19.4217 1.68577 19.8727C1.68598 20.7375 1.97875 21.3905 2.58121 21.8687Z" fill="white"/>
</svg>
