<svg id="_x33_0" enable-background="new 0 0 64 64" height="512" viewBox="0 0 64 64" width="512" xmlns="http://www.w3.org/2000/svg" xmlns:xlink="http://www.w3.org/1999/xlink"><linearGradient id="SVGID_1_" gradientUnits="userSpaceOnUse" x1="32" x2="32" y1="63" y2="1"><stop offset="0" stop-color="#9f2fff"/><stop offset="1" stop-color="#0bb1d3"/></linearGradient><path d="m25 17c0 1.654-1.346 3-3 3s-3-1.346-3-3h2c0 .552.449 1 1 1s1-.448 1-1zm38-9v42c0 1.654-1.346 3-3 3h-10.612l1.333 4h6.279c1.103 0 2 .897 2 2v2c0 1.103-.897 2-2 2h-56v-11.566c0-6.067 2.98-11.625 8-14.978v-4.901l-.272-.17c-4.839-3.026-7.728-8.238-7.728-13.944 0-9.065 7.375-16.441 16.441-16.441h4.562c2.785 0 5.188 1.639 6.313 4h31.684c1.654 0 3 1.346 3 3zm-54 21.16v-2.66l-2.267-1.7c-1.085-.815-1.733-2.111-1.733-3.467 0-2.277 1.766-4.149 4-4.32v-.871c0-1.69.792-3.255 2.105-4.264-.064-.287-.105-.581-.105-.882 0-2.203 1.792-3.996 3.996-3.996l.004 2h-.004c-1.1 0-1.996.896-1.996 1.996 0 .535.208 1.037.586 1.415.376.375.875.581 1.406.581h.005c.55-.001 1.467-.001 2.553-.001-.349-.601-.55-1.28-.55-1.995 0-2.203 1.792-3.996 3.996-3.996v2c-1.1 0-1.996.896-1.996 1.996 0 .535.208 1.037.586 1.415.376.375.875.581 1.406.581h.005v.001c.336 0 .674 0 1.009.001h.004c1.332 0 2.584-.519 3.526-1.46.944-.942 1.464-2.196 1.464-3.53 0-2.763-2.242-5.004-4.997-5.004h-4.562c-7.962 0-14.441 6.479-14.441 14.441 0 4.694 2.226 9.007 6 11.719zm17.977-7.766c-.195-2.612-1.565-5.533-2.294-6.926-.836.346-1.74.527-2.672.527-.002 0-.004 0-.006 0-2.812-.003-5.78-.005-7.002-.002-.003 0-.006 0-.01 0-1.064 0-2.065-.414-2.819-1.166-.044-.044-.075-.096-.117-.142-.665.63-1.057 1.513-1.057 2.457v2.858h-1.667c-1.286 0-2.333 1.047-2.333 2.333 0 .73.349 1.429.934 1.867l3.066 2.3v10.72l6 1.5v-4.72h-2v-2h6 .004c1.067 0 2.069-.414 2.823-1.168.25-.25.448-.534.621-.832h-1.448c-2.206 0-4-1.794-4-4h2c0 1.103.897 2 2 2h2v-4.618zm-14.346 17.294 1.544 1.93 1.544-1.158zm-9.631 22.312h6v-10.172c0-1.557-.606-3.021-1.707-4.121l1.414-1.414c1.479 1.478 2.293 3.443 2.293 5.535v10.172h12v-6h-2c-1.103 0-2-.897-2-2v-10c0-.536.214-1.021.559-1.38-.477-.501-.994-.961-1.549-1.377l-4.185 3.139-4.032-5.04c-4.268 3.001-6.793 7.829-6.793 13.092zm34.271-31.374c.454-.15.917-.283 1.395-.379.352-.07.64-.325.753-.665l.091-.273c-1.215-.705-2.119-1.89-2.408-3.31h-.102v2.676c0 .673.107 1.322.271 1.951zm-2.167-12.126c.567-.309 1.207-.5 1.896-.5h.556c.694-1.19 1.97-2 3.444-2v2c-1.103 0-2 .897-2 2v5c0 1.654 1.346 3 3 3h4c1.654 0 3-1.346 3-3v-5c0-1.103-.897-2-2-2v-2c1.474 0 2.75.81 3.444 2h.556c.689 0 1.329.191 1.896.5.065-.34.104-.684.104-1.028 0-3.018-2.455-5.472-5.472-5.472h-7.056c-3.017 0-5.472 2.454-5.472 5.472 0 .344.039.688.104 1.028zm15.896 7.5h-.101c-.289 1.419-1.193 2.604-2.408 3.309l.091.273c.113.34.401.595.752.665.478.096.941.229 1.395.379.163-.629.271-1.278.271-1.95zm2-4c0-1.103-.897-2-2-2v4c1.103 0 2-.897 2-2zm-16-2c-1.103 0-2 .897-2 2s.897 2 2 2zm1.014 12.483c.709 1.26 1.755 2.315 3.056 3.02.223-.862 1-1.503 1.93-1.503h2c.93 0 1.707.641 1.93 1.502 1.301-.705 2.347-1.76 3.056-3.02-.341-.108-.687-.204-1.044-.275-1.053-.21-1.918-.975-2.258-1.993l-.092-.275c-.196.025-.389.061-.592.061h-4c-.203 0-.396-.036-.592-.06l-.092.275c-.339 1.019-1.205 1.783-2.258 1.993-.357.071-.703.167-1.044.275zm18.986 9.554c0-3.702-2.053-7.017-5.159-8.751-1.041 1.947-2.729 3.521-4.841 4.404v.31c0 1.103-.897 2-2 2v4h12zm-11.999-4.037-.001-2h-2v2zm-8.842-4.714c-3.106 1.734-5.159 5.049-5.159 8.751v1.963h12v-4c-1.103 0-2-.897-2-2v-.31c-2.112-.883-3.8-2.457-4.841-4.404zm6.841 22.714v-2h-12v2c0 .702.128 1.373.35 2h11.3c.222-.627.35-1.298.35-2zm-1.54 4h-8.92c1.099 1.224 2.688 2 4.46 2s3.36-.776 4.46-2zm1.54-8v-6h-10v6zm-14-6v6h2v-6zm0 10v-2c-.91 0-1.671-.615-1.913-1.448-.953.627-1.693 1.55-2.087 2.636v2.812h4.263c-.166-.641-.263-1.308-.263-2zm-2-8.321c-.74-.334-1.414-.79-2-1.34v5.32c.586-.549 1.26-1.006 2-1.34zm-4-3.679h-2v10h2zm8.726 18c-.65-.572-1.206-1.247-1.644-2h-5.082v2zm25.274-2h-13.082c-.437.753-.994 1.428-1.644 2h14.726zm-9.721-6h-2.279v2c0 .692-.097 1.359-.263 2h3.876zm13.721-8h-16v6h15c.551 0 1-.448 1-1zm0-37c0-.552-.449-1-1-1h-31.079c.046.327.079.658.079.997 0 1.875-.728 3.632-2.049 4.952-.175.174-.358.337-.547.49.863 1.628 2.596 5.3 2.596 8.561v.618l-2 1v3.382c0 1.605-.625 3.114-1.76 4.247-1.131 1.131-2.635 1.753-4.235 1.753-.002 0-.004 0-.006 0h-1.999v5.492c.997.721 1.893 1.56 2.676 2.508h3.045l.228.684c.381 1.143 1.148 2.112 2.139 2.764.241-.833 1.002-1.448 1.912-1.448v-1.963c0-4.524 2.556-8.568 6.4-10.613-.257-.878-.4-1.799-.4-2.748v-3.232c-1.19-.694-2-1.97-2-3.444 0-.685.189-1.321.494-1.885-.318-.843-.494-1.743-.494-2.643 0-4.12 3.352-7.472 7.472-7.472h7.056c4.12 0 7.472 3.352 7.472 7.472 0 .899-.176 1.801-.494 2.643.305.564.494 1.2.494 1.885 0 1.474-.81 2.75-2 3.444v3.232c0 .949-.143 1.87-.4 2.748 3.844 2.046 6.4 6.089 6.4 10.613v1.963h2zm-14.473 11.896.154.052.638-1.896-.157-.052c-1.293-.432-2.162-1.637-2.162-3h-2c0 2.226 1.418 4.193 3.527 4.896zm12.473 27.104h-2v2h2zm-4 0h-2v2h2zm-4 2v-2h-2v2z" fill="url(#SVGID_1_)"/></svg>