<svg width="86" height="86" viewBox="0 0 86 86" fill="none" xmlns="http://www.w3.org/2000/svg">
<g clip-path="url(#clip0)">
<path d="M81.797 43.1698C81.7802 43.1866 81.8515 43.1698 81.5836 43.1698C78.7599 43.1698 76.8081 45.7883 77.7923 48.2283C77.3183 48.7277 79.3634 46.6835 44.778 81.088C43.793 82.0662 42.2088 82.068 41.2219 81.088C6.6471 46.6922 8.68644 48.7328 8.20782 48.2283C9.23094 45.6915 7.09211 43.0342 4.20645 43.175C4.20477 43.1732 4.20477 43.1715 4.20308 43.17C1.34095 38.6979 -0.0957471 33.8462 0.00508555 28.8667C0.395812 9.32282 24.2449 -5.08768 43.0001 11.3168C61.7447 -5.0786 85.6043 9.31257 85.9952 28.8667C86.096 33.8462 84.6591 38.6979 81.797 43.1698Z" fill="#0BB1D3"/>
<path d="M81.797 43.1698C81.7802 43.1866 81.8515 43.1698 81.5836 43.1698C78.76 43.1698 76.8082 45.7882 77.7923 48.2282C77.3184 48.7277 79.3635 46.6835 44.778 81.0879C44.2856 81.577 43.6436 81.8223 43 81.8223V11.3168C54.6754 1.10476 69.2427 2.40903 78.5217 11.6848C86.7726 19.9358 88.6743 32.4239 81.797 43.1698V43.1698Z" fill="#26457D"/>
<path d="M81.797 43.1698C80.6828 44.9126 79.3518 46.5982 77.8091 48.2115H59.1334C58.2057 48.2115 57.3537 47.7023 56.9134 46.8855L49.8669 33.7974L39.9012 54.8362C39.0574 56.6174 36.5632 56.7915 35.4965 55.1101L28.2752 43.7631L26.3393 46.9879C25.8838 47.7477 25.0637 48.2113 24.1781 48.2113H8.19106C6.64832 46.598 5.31733 44.9124 4.20312 43.1697H22.7513L26.0502 37.6709C27.0041 36.0774 29.3237 36.0205 30.3373 37.6155L37.2981 48.5525L47.4435 27.1339C48.3317 25.2663 50.9619 25.2028 51.9423 27.018L60.6392 43.1697H81.797V43.1698Z" fill="#E1F3FF"/>
</g>
<defs>
<clipPath id="clip0">
<rect width="86" height="86" fill="white"/>
</clipPath>
</defs>
</svg>
