<svg id="_x33_0" enable-background="new 0 0 64 64" height="512" viewBox="0 0 64 64" width="512" xmlns="http://www.w3.org/2000/svg"><g><g><g><path d="m61.21 16.41-57.21-.41c-1.1 0-2 .9-2 2v38c0 3.31 2.69 6 6 6h38 10c3.31 0 6-2.69 6-6v-38c0-.65-.31-1.23-.79-1.59z" fill="#aab2bd"/></g><g><path d="m10 54h6v4h-6z" fill="#b4dd7f"/></g><g><path d="m20 54h6v4h-6z" fill="#b4dd7f"/></g><g><path d="m30 54h6v4h-6z" fill="#b4dd7f"/></g><g><path d="m58 35v12c0 .55-.45 1-1 1h-12c-.55 0-1-.45-1-1v-12c0-.55.45-1 1-1h12c.55 0 1 .45 1 1z" fill="#e6e9ed"/></g><g><path d="m53.11 39.55c.54.28.89.84.89 1.45s-.35 1.17-.89 1.45l-2.77 1.38c-.22.11-.47.17-.72.17-.9 0-1.62-.72-1.62-1.62v-2.76c0-.9.72-1.62 1.62-1.62.25 0 .5.06.72.17z" fill="#fcd770"/></g><g><path d="m36.55 22.91-1.22-.91-.69-.52c-1.87-1.4-3.25-3.32-4-5.48-.42-1.21-.64-2.49-.64-3.8v-.48c0-2.4.84-4.73 2.38-6.58.83-1 1.86-1.78 3.01-2.32 1.14-.53 2.41-.82 3.7-.82 1.89 0 3.73.61 5.24 1.75l1.67 1.25 1.67-1.25c1.51-1.14 3.35-1.75 5.24-1.75 1.29 0 2.56.29 3.7.82 1.15.54 2.18 1.32 3.01 2.32 1.54 1.85 2.38 4.18 2.38 6.58v.48c0 1.46-.27 2.88-.79 4.21-.78 1.99-2.1 3.76-3.85 5.07l-11.36 8.52-8-6z" fill="#ff826e"/></g><g><circle cx="56" cy="13" fill="#e6e9ed" r="2"/></g><g><path d="m36.55 22.91-1.22-.91h-27.33v22h6 24v-20z" fill="#69d6f4"/></g></g><g><path d="m63 11.721c0-2.633-.928-5.196-2.613-7.219-1.855-2.226-4.58-3.502-7.477-3.502-2.092 0-4.165.691-5.838 1.946l-1.072.804-1.072-.804c-1.673-1.255-3.746-1.946-5.838-1.946-2.896 0-5.622 1.276-7.477 3.501-1.685 2.023-2.613 4.587-2.613 7.22v.479c0 .95.115 1.888.325 2.8h-25.325c-1.654 0-3 1.346-3 3v38c0 3.86 3.141 7 7 7h48c3.859 0 7-3.14 7-7v-38c0-.691-.235-1.339-.654-1.863.418-1.261.654-2.586.654-3.937zm-32 0c0-2.166.764-4.275 2.15-5.939 1.473-1.768 3.638-2.782 5.94-2.782 1.662 0 3.31.549 4.639 1.546l2.271 1.704 2.271-1.704c1.33-.997 2.977-1.546 4.639-1.546 2.302 0 4.467 1.014 5.939 2.782 1.387 1.664 2.151 3.773 2.151 5.939v.479c0 3.319-1.585 6.489-4.239 8.48l-10.761 8.07-8.282-6.211 3.206-10.019 3.054 11.198 2.776-9.718h4.246v-2h-5.754l-1.224 4.282-2.946-10.802-5.052 15.789-.785-.589c-2.654-1.991-4.239-5.161-4.239-8.48zm4 11.279.379.284-3.108 9.716h-5.889l-1.148 2.297-3.234-10.777-3.233 10.777-1.149-2.297h-2.618v-8h-4v2h2v14h2v-6h1.382l2.852 5.703 2.766-9.223 2.767 9.223 2.851-5.703h6.111l3.271-10.219v18.219h-28v-20zm-32 33v-38c0-.551.448-1 1-1h25.978c.614 1.483 1.503 2.843 2.632 4h-25.61v23c0 3.86 3.141 7 7 7h22.234c3.018 0 5.686 1.923 6.641 4.787l1.738 5.213h-36.613c-2.757 0-5-2.243-5-5zm58 0c0 2.757-2.243 5-5 5h-9.28l-1.949-5.846c-1.226-3.681-4.657-6.154-8.537-6.154h-22.234c-2.414 0-4.434-1.721-4.899-4h29.899v-19l7 5.25 11.96-8.97c1.215-.911 2.237-2.033 3.04-3.291z"/><path d="m9 59h8v-6h-8zm2-4h4v2h-4z"/><path d="m19 59h8v-6h-8zm2-4h4v2h-4z"/><path d="m29 59h8v-6h-8zm2-4h4v2h-4z"/><path d="m57 33h-12c-1.103 0-2 .897-2 2v12c0 1.103.897 2 2 2h12c1.103 0 2-.897 2-2v-12c0-1.103-.897-2-2-2zm-12 14v-12h12l.001 12z"/><path d="m53.553 38.658-2.764-1.382c-.361-.18-.767-.276-1.171-.276-1.443 0-2.618 1.174-2.618 2.618v2.764c0 1.444 1.175 2.618 2.618 2.618.404 0 .81-.096 1.171-.276l2.764-1.382c.892-.446 1.447-1.344 1.447-2.342s-.555-1.896-1.447-2.342zm-.895 2.895-2.764 1.382c-.385.196-.894-.117-.894-.553v-2.764c0-.341.277-.618.618-.618.096 0 .191.022.276.065l2.764 1.382c.211.106.342.317.342.553s-.131.447-.342.553z"/><path d="m57 51h2v2h-2z"/><path d="m53 51h2v2h-2z"/><path d="m49 51h2v2h-2z"/><path d="m56 16c1.654 0 3-1.346 3-3s-1.346-3-3-3-3 1.346-3 3 1.346 3 3 3zm0-4c.552 0 1 .449 1 1s-.448 1-1 1-1-.449-1-1 .448-1 1-1z"/></g></g></svg>