<svg height="512" viewBox="0 0 512 512" width="512" xmlns="http://www.w3.org/2000/svg"><g id="flat"><path d="m181.733 112a84.264 84.264 0 0 1 59.583 24.68l15.32 15.32 15.32-15.32a84.264 84.264 0 0 1 59.583-24.68 84.265 84.265 0 0 1 70.112 37.523 108.118 108.118 0 0 1 -22.419 144.4l-122.596 98.077-122.6-98.077a108.118 108.118 0 0 1 -22.419-144.4 84.265 84.265 0 0 1 70.116-37.523z" fill="#cb2527"/><g fill="#b22122"><path d="m216 312c-.189 0-.378-.006-.569-.02a8 8 0 0 1 -7.022-5.45l-33.476-100.43-23.622 53.151a8 8 0 0 1 -7.311 4.749h-120a8 8 0 0 1 0-16h114.8l29.888-67.249a8 8 0 0 1 14.9.719l33.893 101.677 15.363-30.725a8 8 0 0 1 7.156-4.422h96a8 8 0 0 1 0 16h-91.056l-21.789 43.578a8 8 0 0 1 -7.155 4.422z"/><path d="m488 264h-120a8 8 0 0 1 0-16h120a8 8 0 0 1 0 16z"/></g></g></svg>