<svg width="25" height="24" viewBox="0 0 25 24" fill="none" xmlns="http://www.w3.org/2000/svg">
<g clip-path="url(#clip0)">
<path d="M23.8645 10.4388C23.864 10.4383 23.8634 10.4377 23.8629 10.4372L14.0728 0.647461C13.6555 0.22998 13.1006 0 12.5105 0C11.9204 0 11.3655 0.229797 10.9481 0.647278L1.16309 10.4321C1.15979 10.4354 1.15631 10.4388 1.1532 10.4421C0.296267 11.304 0.297731 12.7024 1.15759 13.5621C1.55017 13.955 2.06873 14.1826 2.62335 14.2064C2.64588 14.2086 2.66876 14.2097 2.69165 14.2097H3.08167V21.4144C3.08167 22.84 4.24182 24 5.66767 24H9.49787C9.88623 24 10.201 23.6852 10.201 23.2969V17.6484C10.201 16.9979 10.7303 16.4687 11.3809 16.4687H13.6401C14.2907 16.4687 14.8198 16.9979 14.8198 17.6484V23.2969C14.8198 23.6852 15.1348 24 15.523 24H19.3532C20.7792 24 21.9391 22.84 21.9391 21.4144V14.2097H22.301C22.8909 14.2097 23.4457 13.9799 23.8634 13.5624C24.724 12.7013 24.7246 11.3005 23.8645 10.4388Z" fill="#0BB1D3"/>
<path d="M23.8644 10.4388C23.8639 10.4383 23.8633 10.4377 23.8628 10.4372L14.0727 0.647461C13.6554 0.22998 13.1006 0 12.5104 0H12.5103V16.4687H13.64C14.2906 16.4687 14.8198 16.9979 14.8198 17.6484V23.2969C14.8198 23.6852 15.1347 24 15.5229 24H19.3531C20.7791 24 21.9391 22.84 21.9391 21.4144V14.2097H22.3009C22.8909 14.2097 23.4457 13.9799 23.8633 13.5624C24.7239 12.7013 24.7245 11.3005 23.8644 10.4388Z" fill="#26457D"/>
</g>
<defs>
<clipPath id="clip0">
<rect width="24" height="24" fill="white" transform="translate(0.511597)"/>
</clipPath>
</defs>
</svg>
