<svg height="512" viewBox="0 0 64 64" width="512" xmlns="http://www.w3.org/2000/svg" xmlns:xlink="http://www.w3.org/1999/xlink"><linearGradient id="linear-gradient" gradientUnits="userSpaceOnUse" x1="1" x2="67.189" y1="42" y2="42"><stop offset="0" stop-color="#47c0bb"/><stop offset="1" stop-color="#0063ae"/></linearGradient><linearGradient id="linear-gradient-3" x2="67.189" xlink:href="#linear-gradient" y1="54.5" y2="54.5"/><linearGradient id="linear-gradient-4" x2="67.189" xlink:href="#linear-gradient" y1="57" y2="57"/><linearGradient id="linear-gradient-5" x2="67.189" xlink:href="#linear-gradient" y1="32" y2="32"/><linearGradient id="linear-gradient-6" x2="67.189" xlink:href="#linear-gradient" y1="32.646" y2="32.646"/><g id="Gradient_outline" data-name="Gradient outline"><path d="m18 38a3 3 0 0 0 -3 3v2a3 3 0 0 0 6 0v-2a3 3 0 0 0 -3-3zm1 5a1 1 0 0 1 -2 0v-2a1 1 0 0 1 2 0z" fill="url(#linear-gradient)"/><path d="m29 44h-3.333l2.933-2.2a1 1 0 0 0 .4-.8v-2a1 1 0 0 0 -1-1h-4a1 1 0 0 0 -1 1v2h2v-1h2v.5l-3.6 2.7a1 1 0 0 0 -.4.8v1a1 1 0 0 0 1 1h5z" fill="url(#linear-gradient)"/><path d="m29 56h-3v2h4a1 1 0 0 0 1-1v-6h-2z" fill="url(#linear-gradient-3)"/><path d="m22 56h2v2h-2z" fill="url(#linear-gradient-4)"/><path d="m49 25a8 8 0 0 0 -1 15.931v4.069a1 1 0 0 1 -1 1h-7a1 1 0 0 1 -1-1v-34a3 3 0 0 0 -3-3h-7v-1a1 1 0 0 0 -1-1h-3v-3a1 1 0 0 0 -1-1h-4a1 1 0 0 0 -1 1v3h-2v-1a1 1 0 0 0 -1-1h-4a1 1 0 0 0 -1 1v8a1 1 0 0 0 1 1h4a1 1 0 0 0 1-1v-1h2v4.051a11.01 11.01 0 0 0 -10 10.949v30a5.006 5.006 0 0 0 5 5h16a5.006 5.006 0 0 0 5-5v-30a11.01 11.01 0 0 0 -10-10.949v-4.051h3a1 1 0 0 0 1-1v-1h7a1 1 0 0 1 1 1v34a3 3 0 0 0 3 3h7a3 3 0 0 0 3-3v-4.069a8 8 0 0 0 -1-15.931zm-28-21h2v2h-2zm-6 8h-2v-6h2zm18 18v4h-22v-4zm-3 30h-16a3 3 0 0 1 -3-3v-21h22v21a3 3 0 0 1 -3 3zm3-33v1h-2v-1a7.008 7.008 0 0 0 -7-7h-1v2h1a5.006 5.006 0 0 1 5 5v1h-18v-1a9.01 9.01 0 0 1 9-9h4a9.01 9.01 0 0 1 9 9zm-10-11h-2v-4h2zm4-6h-10v-2h10zm22 29a6 6 0 1 1 6-6 6.006 6.006 0 0 1 -6 6z" fill="url(#linear-gradient-5)"/><path d="m49 30a2.951 2.951 0 0 0 -1.285.3l-1.008-1.008-1.414 1.414 1.007 1.009a2.951 2.951 0 0 0 -.3 1.285 3 3 0 1 0 3-3zm0 4a1 1 0 1 1 1-1 1 1 0 0 1 -1 1z" fill="url(#linear-gradient-6)"/></g></svg>