<svg width="91" height="75" viewBox="0 0 91 75" fill="none" xmlns="http://www.w3.org/2000/svg">
<defs>
<linearGradient id="paint0_linear" x1="0.90979" y1="74.8965" x2="90.0909" y2="74.8965" gradientUnits="userSpaceOnUse">
<stop stop-color="#26457D"/>
<stop offset="1" stop-color="#0BB1D3"/>
</linearGradient>
</defs>
<path d="M33.9949 6.75568C27.9179 10.423 22.8301 13.5516 22.7218 13.7135C22.5416 13.9292 22.4879 15.1341 22.4879 18.1543V22.3076L11.8619 28.6721C6.03696 32.1784 1.18302 35.1804 1.07473 35.3606C0.894547 35.7201 0.840857 59.219 1.02104 59.7049C1.18302 60.1181 23.1713 74.7718 23.7829 74.861C24.1605 74.9147 26.4619 73.6025 34.7684 68.622C40.5578 65.1522 45.3945 62.3112 45.5018 62.3112C45.6101 62.3112 50.4277 65.1522 56.1998 68.6038C61.971 72.0737 66.8614 74.8965 67.077 74.8965C67.5266 74.8965 89.2992 61.9335 89.7852 61.3757C90.0727 61.0345 90.0909 60.1536 90.0909 48.3409C90.0909 40.7897 90.019 35.5581 89.929 35.3597C89.8216 35.1795 84.9667 32.1774 79.1418 28.6712L68.5166 22.3067V18.1534C68.5166 14.4497 68.4802 13.9465 68.2109 13.6225C67.6895 13.0292 45.9341 0.101761 45.4673 0.101761C45.2498 0.120872 40.0719 3.10567 33.9949 6.75568ZM54.9404 8.8596C60.0282 11.9163 64.1814 14.4334 64.1814 14.487C64.1814 14.6845 45.8249 25.5445 45.5009 25.5445C45.177 25.5445 26.8204 14.6854 26.8204 14.487C26.8204 14.3433 45.2134 3.35774 45.4645 3.33954C45.6092 3.33954 49.8707 5.82021 54.9404 8.8596ZM44.0631 38.7222V49.1863L34.7138 42.9482L25.3644 36.7265V26.874V17.0214L34.7138 22.6306L44.0631 28.2399V38.7222ZM65.6383 27.5756V38.1298L56.289 43.739L46.9396 49.3482V38.795V28.2408L56.2526 22.6315C61.3586 19.5576 65.5655 17.0223 65.6019 17.0223C65.6201 17.0041 65.6383 21.7498 65.6383 27.5756ZM22.6317 38.3454C22.6499 38.3818 24.52 39.6404 26.785 41.15L30.92 43.901L27.4502 45.6263L23.9803 47.3708L14.6128 41.7616C9.4531 38.6685 5.24617 36.1159 5.24617 36.0613C5.24617 36.0076 9.09365 33.6698 13.822 30.8297L22.3978 25.7055L22.4879 31.9982C22.5416 35.468 22.6135 38.3272 22.6317 38.3454ZM85.7566 36.0613C85.7566 36.1696 67.9033 46.8849 67.3637 47.1005C67.0224 47.2261 66.501 46.9922 64.3252 45.68C62.8692 44.8173 61.6825 44.0438 61.6825 43.972C61.6825 43.9001 63.1385 42.9655 64.9185 41.9044C66.7167 40.8252 68.2446 39.8187 68.3346 39.6394C68.442 39.4593 68.5148 36.4754 68.5148 32.4841V25.6518L77.1444 30.8115C81.8736 33.6526 85.7566 36.0076 85.7566 36.0613ZM22.4879 60.2974V70.7614L13.1386 64.5225L3.78926 58.3017V48.4492V38.5966L13.1386 44.2067L22.4879 49.816V60.2974ZM87.2135 49.1508V59.704L77.8642 65.3133L68.5148 70.9225V60.3683V49.8142L77.8278 44.2067C82.9347 41.1318 87.1416 38.5966 87.1771 38.5966C87.1953 38.5784 87.2135 43.3249 87.2135 49.1508ZM65.6383 60.3692V70.9234L56.289 65.3142L46.9396 59.704V56.1978V52.6916L52.8191 49.1681L58.6805 45.6445L62.1685 47.7303L65.6383 49.816V60.3692ZM38.8852 49.2227L44.0631 52.657V56.1814V59.704L34.7138 65.3133L25.3644 70.9225V60.4229V49.9052L29.464 47.8558C31.7117 46.7229 33.5817 45.7883 33.6354 45.7883C33.6709 45.7701 36.0442 47.3171 38.8852 49.2227Z" fill="url(#paint0_linear)"/>
</svg>
