<?xml version="1.0" encoding="iso-8859-1"?>
<!-- Generator: Adobe Illustrator 19.0.0, SVG Export Plug-In . SVG Version: 6.00 Build 0)  -->
<svg version="1.1" id="Capa_1" xmlns="http://www.w3.org/2000/svg" xmlns:xlink="http://www.w3.org/1999/xlink" x="0px" y="0px"
	 viewBox="0 0 503.916 503.916" style="enable-background:new 0 0 503.916 503.916;" xml:space="preserve">
<path style="fill:#CFD8DC;" d="M503.915,55.951c0.016-30.881-25.005-55.928-55.886-55.943C433.183,0,418.943,5.897,408.449,16.399
	l-296.768,296.96c-27.351-4.73-55.326,3.778-75.413,22.933C13.269,354.373-0.111,382.046,0.001,411.3
	c1.864,50.346,42.241,90.733,92.587,92.608h2.773c28.253-0.826,54.695-14.102,72.235-36.267
	c19.186-20.087,27.689-48.093,22.912-75.456L487.51,95.46C498.042,85.014,503.95,70.784,503.915,55.951z"/>
<g>
	<circle style="fill:#F44336;" cx="95.979" cy="407.951" r="53.333"/>
	<path style="fill:#F44336;" d="M127.979,386.617c-5.891,0.011-10.675-4.757-10.686-10.648c-0.005-2.84,1.123-5.565,3.134-7.571
		l202.667-202.667c4.092-4.237,10.845-4.355,15.083-0.262s4.355,10.845,0.262,15.083c-0.086,0.089-0.173,0.176-0.262,0.262
		L135.51,383.482C133.514,385.483,130.806,386.611,127.979,386.617z"/>
</g>
<g>
	<path style="fill:#90A4AE;" d="M213.313,365.284c-2.831,0.005-5.548-1.115-7.552-3.115l-10.667-10.667
		c-4.092-4.237-3.975-10.99,0.262-15.083c4.134-3.992,10.687-3.992,14.82,0l10.667,10.667c4.171,4.16,4.179,10.914,0.019,15.085
		c-2.006,2.011-4.731,3.139-7.571,3.134L213.313,365.284z"/>
	<path style="fill:#90A4AE;" d="M255.979,322.617c-2.831,0.005-5.548-1.115-7.552-3.115l-10.667-10.667
		c-4.092-4.237-3.975-10.99,0.262-15.083c4.134-3.992,10.687-3.992,14.82,0l10.667,10.667c4.171,4.16,4.179,10.914,0.019,15.085
		c-2.006,2.011-4.731,3.139-7.571,3.134L255.979,322.617z"/>
	<path style="fill:#90A4AE;" d="M298.646,279.951c-2.831,0.005-5.548-1.115-7.552-3.115l-10.667-10.667
		c-4.092-4.237-3.975-10.99,0.262-15.083c4.134-3.992,10.687-3.992,14.82,0l10.667,10.667c4.171,4.16,4.179,10.914,0.019,15.085
		c-2.006,2.011-4.731,3.139-7.571,3.134L298.646,279.951z"/>
	<path style="fill:#90A4AE;" d="M341.313,237.284c-2.831,0.005-5.548-1.115-7.552-3.115l-10.667-10.667
		c-4.093-4.237-3.975-10.99,0.262-15.083c4.134-3.993,10.687-3.993,14.821,0l10.667,10.667c4.171,4.16,4.179,10.914,0.019,15.085
		c-2.006,2.011-4.731,3.139-7.571,3.134L341.313,237.284z"/>
	<path style="fill:#90A4AE;" d="M383.979,194.617c-2.831,0.005-5.548-1.115-7.552-3.115l-10.667-10.667
		c-4.093-4.237-3.975-10.99,0.262-15.083c4.134-3.993,10.687-3.993,14.821,0l10.667,10.667c4.171,4.16,4.179,10.914,0.019,15.085
		c-2.006,2.011-4.731,3.139-7.571,3.134L383.979,194.617z"/>
	<path style="fill:#90A4AE;" d="M426.646,151.951c-2.831,0.005-5.548-1.115-7.552-3.115l-10.667-10.667
		c-4.093-4.237-3.975-10.99,0.262-15.083c4.134-3.993,10.687-3.993,14.821,0l10.667,10.667c4.171,4.16,4.179,10.914,0.019,15.085
		c-2.006,2.011-4.731,3.139-7.571,3.134L426.646,151.951z"/>
	<path style="fill:#90A4AE;" d="M469.313,109.284c-2.831,0.005-5.548-1.115-7.552-3.115l-10.667-10.667
		c-4.093-4.237-3.976-10.99,0.262-15.083c4.134-3.993,10.687-3.993,14.821,0l10.667,10.667c4.171,4.16,4.179,10.914,0.019,15.085
		c-2.006,2.011-4.731,3.139-7.571,3.134L469.313,109.284z"/>
</g>
<g>
</g>
<g>
</g>
<g>
</g>
<g>
</g>
<g>
</g>
<g>
</g>
<g>
</g>
<g>
</g>
<g>
</g>
<g>
</g>
<g>
</g>
<g>
</g>
<g>
</g>
<g>
</g>
<g>
</g>
</svg>
