<svg width="84" height="84" viewBox="0 0 84 84" fill="none" xmlns="http://www.w3.org/2000/svg">
<defs>
<linearGradient id="paint0_linear" x1="10" y1="63" x2="74" y2="63" gradientUnits="userSpaceOnUse">
<stop stop-color="#26457D"/>
<stop offset="1" stop-color="#0BB1D3"/>
</linearGradient>
<linearGradient id="paint1_linear" x1="10.7197" y1="55.8828" x2="73.6317" y2="55.8828" gradientUnits="userSpaceOnUse">
<stop stop-color="#26457D"/>
<stop offset="1" stop-color="#0BB1D3"/>
</linearGradient>
</defs>
<path d="M44.8117 1.05438C43.4059 -0.35142 40.9456 -0.35142 39.5397 1.05438C36.3766 4.56897 10.3682 36.2007 10.3682 52.3682C10.3682 69.9415 24.4267 84 41.9999 84C59.5732 84 73.6317 69.9415 73.6317 52.3682C73.6317 36.2007 47.6235 4.56897 44.8117 1.05438Z" fill="#CCF2FE"/>
<path d="M69.7657 38.6611C64.4938 40.0669 63.7908 45.3389 57.113 45.3389C49.3809 45.3389 49.3809 38.3096 42.0001 38.3096C34.6194 38.3096 34.2678 45.3389 26.887 45.3389C20.2093 45.3389 19.5063 40.0669 14.2343 38.6611C12.1255 42.8787 10.7197 47.4477 10.3682 52.3682C10.3682 53.4226 10.3682 54.8284 10.7196 55.8828C11.071 55.8828 11.4226 55.8828 11.774 55.8828C19.5061 55.8828 19.5061 62.9122 26.8869 62.9122C34.2676 62.9122 34.619 55.8828 41.9998 55.8828C49.3805 55.8828 49.7319 62.9122 57.1127 62.9122C64.4934 62.9122 64.8452 55.8828 72.2259 55.8828C72.5773 55.8828 72.9289 55.8828 73.2803 55.8828C73.2803 54.8284 73.6317 53.4226 73.6317 52.3682C73.2803 47.4477 71.8745 42.8787 69.7657 38.6611Z" fill="url(#paint0_linear)"/>
<path d="M57.113 62.9122C49.3808 62.9122 49.3808 55.8828 42.0001 55.8828C34.6193 55.8828 34.2678 62.9122 26.887 62.9122C19.5063 62.9122 19.1549 55.8828 11.7741 55.8828C11.4227 55.8828 11.0711 55.8828 10.7197 55.8828C12.8285 73.1045 28.293 85.7572 45.8661 83.6485C60.6276 81.8912 71.8745 70.2929 73.6317 55.8828C73.2803 55.8828 72.9287 55.8828 72.5773 55.8828C64.8452 55.8828 64.8452 62.9122 57.113 62.9122Z" fill="url(#paint1_linear)"/>
</svg>
